<?xml version="1.0" standalone="no"?>
<!DOCTYPE svg PUBLIC "-//W3C//DTD SVG 20010904//EN"
 "http://www.w3.org/TR/2001/REC-SVG-20010904/DTD/svg10.dtd">
<svg version="1.0" xmlns="http://www.w3.org/2000/svg"
 width="128.000000pt" height="128.000000pt" viewBox="0 0 128.000000 128.000000"
 preserveAspectRatio="xMidYMid meet">
<metadata>
Created by potrace 1.16, written by Peter Selinger 2001-2019
</metadata>
<g transform="translate(0.000000,128.000000) scale(0.100000,-0.100000)"
fill="#000000" stroke="none">
<path d="M323 1005 c0 -44 2 -61 4 -37 2 23 2 59 0 80 -2 20 -4 1 -4 -43z
M1013 990 c0 -30 2 -43 4 -27 2 15 2 39 0 55 -2 15 -4 2 -4 -28z M170 955 c0
-38 119 -203 165 -227 11 -6 -3 11 -31 38 -28 28 -70 83 -92 124 -23 41 -42
70 -42 65z M332 895 c0 -16 2 -22 5 -12 2 9 2 23 0 30 -3 6 -5 -1 -5 -18z
M1142 890 c0 -19 2 -27 5 -17 2 9 2 25 0 35 -3 9 -5 1 -5 -18z M992 858 c-7
-28 -11 -53 -8 -55 2 -2 9 19 16 47 7 28 10 53 8 55 -3 3 -10 -18 -16 -47z
M635 861 c-65 -16 -115 -67 -115 -117 0 -12 -7 -24 -15 -28 -18 -6 -21 -77 -5
-107 6 -10 7 -19 2 -19 -11 0 -37 30 -45 53 -4 9 -13 17 -21 17 -8 0 -16 3
-18 8 -2 4 -16 18 -33 32 -16 14 -24 18 -18 10 10 -13 4 -15 -40 -13 l-52 2
40 -10 c71 -17 94 -29 87 -47 -5 -15 -3 -15 11 -4 9 8 21 11 27 7 15 -9 12
-41 -6 -56 -13 -11 -14 -9 -8 16 6 24 4 27 -10 22 -10 -4 -21 -7 -24 -7 -4 0
0 -5 8 -10 13 -8 12 -10 -3 -10 -16 0 -17 5 -12 31 5 22 4 29 -4 25 -14 -9
-14 -59 0 -73 9 -9 4 -21 -19 -47 -31 -36 -48 -73 -38 -83 3 -4 6 0 6 8 0 20
48 89 62 89 7 0 8 -14 4 -40 -3 -22 -3 -40 1 -40 5 0 9 14 10 31 3 44 5 44 47
4 43 -41 38 -75 -12 -75 -16 0 -37 -6 -48 -14 -10 -8 -28 -13 -40 -10 -50 12
-52 -67 -3 -112 17 -15 24 -16 53 -6 52 19 62 15 75 -31 22 -72 51 -86 101
-47 14 11 37 20 51 20 55 0 109 81 109 162 0 21 5 28 19 28 10 0 34 7 54 15
l35 14 4 -52 c4 -48 1 -70 -17 -122 -3 -11 1 -8 10 8 10 17 17 56 19 100 2 64
6 76 30 100 21 21 26 34 22 53 -4 13 -5 24 -4 25 2 0 37 6 78 14 74 14 74 14
15 9 l-60 -5 84 46 c89 48 169 103 192 132 8 9 -13 -3 -46 -28 -68 -51 -135
-92 -142 -86 -2 3 6 13 19 23 30 25 68 74 68 88 0 6 -6 2 -12 -9 -27 -49 -208
-193 -208 -165 0 5 4 11 9 15 18 10 148 205 138 205 -2 0 -32 -43 -67 -95 -34
-52 -66 -93 -70 -90 -4 3 -13 -8 -20 -24 -6 -17 -17 -28 -24 -25 -7 3 -23 -4
-36 -16 -13 -12 -37 -20 -57 -20 -44 0 -34 16 17 30 46 13 66 40 50 70 -6 11
-8 36 -4 54 13 73 -43 153 -123 175 -21 6 -40 10 -43 10 -3 -1 -18 -4 -35 -8z
m-13 -38 c-3 -18 1 -30 13 -40 24 -17 45 -17 45 1 0 8 6 16 13 19 6 2 9 8 5
12 -5 5 -17 0 -28 -10 -18 -17 -20 -17 -20 -1 0 9 -4 14 -10 11 -12 -7 -12 -3
-4 19 13 34 108 11 153 -37 31 -35 42 -124 17 -142 -15 -11 -15 -13 5 -18 36
-10 22 -52 -18 -52 -17 0 -31 -4 -30 -8 1 -5 -14 -17 -33 -28 -88 -48 -233 17
-217 98 28 140 35 156 80 183 18 11 33 20 33 20 1 0 -1 -12 -4 -27z m-74 -290
l32 -34 -20 -29 c-11 -15 -19 -39 -19 -52 1 -15 3 -17 6 -7 3 11 11 15 25 11
15 -4 19 -1 16 9 -3 8 -10 13 -16 12 -5 -1 -8 7 -5 18 4 14 9 17 16 10 15 -15
27 -14 27 4 0 8 -5 15 -11 15 -5 0 -7 5 -3 11 4 8 9 8 17 0 14 -14 39 -14 74
1 36 14 126 17 135 3 11 -15 9 -47 -2 -40 -5 3 -10 2 -10 -2 0 -5 -8 -10 -17
-11 -10 -1 -31 -3 -48 -4 -30 -3 -30 -4 -28 -58 1 -48 0 -50 -6 -20 -7 29 -9
31 -10 10 -3 -40 -25 -72 -67 -95 -22 -12 -38 -26 -37 -31 2 -9 -22 -22 -43
-23 -6 -1 -17 13 -24 29 -7 17 -20 30 -28 30 -13 0 -14 2 -3 13 10 10 17 6 37
-18 15 -19 24 -25 24 -15 0 9 -5 21 -11 27 -22 22 28 56 75 50 37 -5 39 -4 22
9 -28 20 -48 18 -89 -10 -71 -48 -104 30 -52 123 27 47 30 55 15 46 -11 -7
-70 25 -70 38 0 4 -4 5 -10 2 -16 -10 -12 6 6 26 20 22 47 9 102 -48z m322 6
c0 -5 -4 -7 -10 -4 -6 4 -10 -6 -10 -22 -1 -24 -2 -26 -11 -10 -6 10 -8 25 -5
33 6 16 36 19 36 3z m30 -18 c0 -29 -15 -49 -28 -36 -3 3 0 10 8 15 12 8 12
10 1 10 -10 0 -11 3 -2 13 6 8 8 17 4 20 -3 4 -1 7 5 7 7 0 12 -13 12 -29z
m-235 -11 c-3 -5 -12 -10 -20 -10 -8 0 -17 5 -20 10 -4 6 5 10 20 10 15 0 24
-4 20 -10z m-205 -123 c0 -25 -6 -37 -25 -47 -13 -7 -22 -16 -20 -21 3 -4 -4
-5 -16 -2 -12 3 -25 18 -31 34 -5 15 -17 30 -26 32 -13 4 -12 5 4 6 11 0 25
-4 32 -11 9 -9 12 -8 12 5 0 17 29 35 58 36 7 1 12 -12 12 -32z M705 720 c3
-5 11 -10 16 -10 6 0 7 5 4 10 -3 6 -11 10 -16 10 -6 0 -7 -4 -4 -10z M564
707 c-8 -21 2 -35 16 -21 5 5 6 15 0 24 -8 12 -10 12 -16 -3z M684 676 c-8
-22 3 -33 18 -18 9 9 9 15 0 24 -9 9 -13 7 -18 -6z M575 641 c-15 -25 30 -66
60 -55 23 9 39 43 23 48 -35 11 -78 14 -83 7z m65 -31 c0 -5 -10 -10 -22 -10
-19 0 -20 2 -8 10 19 13 30 13 30 0z M793 623 c-7 -2 -13 -11 -13 -19 0 -12 4
-12 20 -2 31 20 26 35 -7 21z M340 844 c0 -10 5 -26 10 -34 8 -11 9 -7 4 15
-8 37 -14 45 -14 19z M1061 833 c-10 -26 -10 -27 4 -9 8 11 15 23 15 28 0 15
-7 8 -19 -19z M1126 809 c-3 -18 -4 -34 -2 -36 2 -3 7 10 11 27 4 17 5 34 2
36 -2 3 -7 -10 -11 -27z M80 795 c14 -17 110 -79 114 -74 1 2 -26 23 -62 46
-35 23 -59 36 -52 28z M360 789 c0 -4 11 -27 25 -50 14 -24 25 -39 25 -34 0
11 -49 94 -50 84z M932 685 c-30 -62 -27 -71 4 -12 14 27 24 51 22 53 -3 2
-14 -17 -26 -41z M220 710 c8 -5 24 -10 34 -10 26 0 18 6 -19 14 -22 5 -26 4
-15 -4z M230 664 c-53 -14 -154 -14 -195 0 -11 3 -4 -1 15 -10 41 -19 148 -15
220 9 57 19 32 19 -40 1z M1237 644 c-15 -8 -60 -24 -100 -34 -40 -10 -62 -19
-51 -19 31 -1 145 35 169 53 26 20 18 19 -18 0z M370 501 c-6 -16 -10 -38 -7
-48 4 -14 5 -13 6 5 0 13 6 32 12 44 6 11 9 22 6 24 -2 3 -10 -9 -17 -25z
M871 420 c-1 -3 6 -23 14 -45 8 -22 14 -31 14 -20 0 17 -28 80 -28 65z M821
381 c0 -14 -8 -33 -18 -43 -9 -10 -12 -18 -6 -18 15 0 36 45 30 66 -4 15 -5
14 -6 -5z"/>
</g>
</svg>
